Coordinates
version=1
nRows=14
nColumns=40
inDegrees=yes

Units are S.I. units (second, meters, Newtons, ...)
If the header above contains a line with 'inDegrees', this indicates whether rotational values are in degrees (yes) or radians (no).

endheader
time	pelvis_tilt	pelvis_list	pelvis_rotation	pelvis_tx	pelvis_ty	pelvis_tz	hip_flexion_r	hip_adduction_r	hip_rotation_r	knee_angle_r	knee_angle_r_beta	ankle_angle_r	subtalar_angle_r	mtp_angle_r	hip_flexion_l	hip_adduction_l	hip_rotation_l	knee_angle_l	knee_angle_l_beta	ankle_angle_l	subtalar_angle_l	mtp_angle_l	lumbar_extension	lumbar_bending	lumbar_rotation	arm_flex_r	arm_add_r	arm_rot_r	elbow_flex_r	pro_sup_r	wrist_flex_r	wrist_dev_r	arm_flex_l	arm_add_l	arm_rot_l	elbow_flex_l	pro_sup_l	wrist_flex_l	wrist_dev_l
      3.24000000	    -32.97261118	      5.28901624	     -6.36550891	     -0.42415707	      0.59916868	     -0.90529105	    109.77998147	    -21.38425802	     11.75296599	    103.65353658	      1.80909549	     28.08233306	      0.00000000	      0.00000000	    106.88148497	    -32.91308978	      2.93843193	    106.43218486	      1.85759206	     35.83137857	      0.00000000	      0.00000000	    -22.02810701	     -5.56402894	      4.22169338	     17.27504332	    -54.66407126	     89.60690662	     92.08846630	     88.77596667	      0.00000000	      0.00000000	     20.09700723	    -58.36826673	     89.62839776	     97.93308991	     88.59474703	      0.00000000	      0.00000000
      3.24500000	    -33.02366659	      5.34382019	     -6.31742197	     -0.42421536	      0.59906830	     -0.90554823	    109.90185089	    -21.44594528	     11.82344022	    103.65735371	      1.80916212	     27.93756130	      0.00000000	      0.00000000	    106.87992891	    -32.81782027	      2.86119122	    106.41842965	      1.85735198	     35.92563992	      0.00000000	      0.00000000	    -21.96998979	     -5.58944112	      4.17469325	     17.27787570	    -54.62448602	     89.61331053	     91.92799930	     88.72526591	      0.00000000	      0.00000000	     20.15648383	    -58.29034676	     89.64056903	     97.81071100	     88.43630017	      0.00000000	      0.00000000
      3.25000000	    -32.98647063	      5.24548900	     -6.33501261	     -0.42416208	      0.59909668	     -0.90540104	    109.77976950	    -21.44492833	     11.70662057	    103.67106182	      1.80940137	     28.06880824	      0.00000000	      0.00000000	    106.94115135	    -32.85713230	      3.00647931	    106.45025560	      1.85790745	     35.74511767	      0.00000000	      0.00000000	    -22.05144733	     -5.50559115	      4.21446630	     17.27572399	    -54.69687012	     89.60738249	     92.15995124	     88.81989571	      0.00000000	      0.00000000	     20.13428131	    -58.36550736	     89.63134109	     97.96997391	     88.51595528	      0.00000000	      0.00000000
      3.25500000	    -32.94417719	      5.31182968	     -6.53032906	     -0.42406333	      0.59909081	     -0.90493102	    109.74731436	    -21.21918227	     11.70205937	    103.66576841	      1.80930898	     28.10705268	      0.00000000	      0.00000000	    106.87299219	    -33.11387215	      2.97254336	    106.46897489	      1.85823416	     35.85871869	      0.00000000	      0.00000000	    -22.08332897	     -5.66272351	      4.36419216	     17.27419723	    -54.65061969	     89.60628628	     92.08791092	     88.77075597	      0.00000000	      0.00000000	     20.14027574	    -58.37774017	     89.62985476	     97.95761901	     88.61468604	      0.00000000	      0.00000000
      3.26000000	    -32.95665643	      5.37551331	     -6.51146701	     -0.42402428	      0.59899212	     -0.90505300	    109.81460264	    -21.22628736	     11.80018744	    103.67242216	      1.80942511	     28.05150805	      0.00000000	      0.00000000	    106.83770271	    -33.08991833	      2.88984470	    106.48082487	      1.85844098	     35.84431751	      0.00000000	      0.00000000	    -22.07619598	     -5.71771995	      4.31543830	     17.27799932	    -54.63821236	     89.60827637	     92.08849255	     88.76152554	      0.00000000	      0.00000000	     20.15228285	    -58.38618377	     89.62980298	     97.95627366	     88.60990050	      0.00000000	      0.00000000
      3.26500000	    -32.96860593	      5.28297083	     -6.31213635	     -0.42396066	      0.59897667	     -0.90559178	    109.80479786	    -21.48278799	     11.77280246	    103.68998222	      1.80973159	     28.14069208	      0.00000000	      0.00000000	    106.85876392	    -32.77714183	      2.95971966	    106.44651983	      1.85784225	     35.88207402	      0.00000000	      0.00000000	    -22.11485273	     -5.53172110	      4.17072008	     17.27283458	    -54.69645730	     89.60668409	     92.11156570	     88.77061190	      0.00000000	      0.00000000	     20.15624812	    -58.32005861	     89.63254268	     97.92797556	     88.61188362	      0.00000000	      0.00000000
      3.27000000	    -33.00282257	      5.24352568	     -6.38578307	     -0.42397307	      0.59889309	     -0.90541031	    109.79449703	    -21.40304028	     11.69696433	    103.67426003	      1.80945719	     28.07865166	      0.00000000	      0.00000000	    106.95211302	    -32.87867808	      3.03380831	    106.46595119	      1.85818139	     35.93516668	      0.00000000	      0.00000000	    -22.07319275	     -5.51283502	      4.26446110	     17.29310930	    -54.65323959	     89.61299312	     92.00816359	     88.75517817	      0.00000000	      0.00000000	     20.19270688	    -58.27493409	     89.63739327	     97.82689831	     88.50315035	      0.00000000	      0.00000000
      3.27500000	    -32.98036821	      5.15097530	     -6.24449327	     -0.42384805	      0.59887982	     -0.90584241	    109.74592117	    -21.60256962	     11.65303848	    103.71095381	      1.81009761	     28.11725197	      0.00000000	      0.00000000	    106.98087125	    -32.62867495	      3.15025439	    106.48722024	      1.85855260	     35.83570064	      0.00000000	      0.00000000	    -22.14645378	     -5.34624389	      4.15210339	     17.28942211	    -54.75269249	     89.60739779	     92.17661477	     88.77685420	      0.00000000	      0.00000000	     20.18227483	    -58.26875129	     89.63009705	     97.90542243	     88.62849529	      0.00000000	      0.00000000
      3.28000000	    -33.02697880	      5.25267023	     -6.30241628	     -0.42395223	      0.59873371	     -0.90571949	    109.85753568	    -21.49343778	     11.76519589	    103.71527109	      1.81017297	     28.09613862	      0.00000000	      0.00000000	    106.97332146	    -32.71878209	      3.03819683	    106.47805505	      1.85839264	     35.86839411	      0.00000000	      0.00000000	    -22.08965862	     -5.48227539	      4.16496405	     17.28621938	    -54.72011862	     89.60874533	     92.14402701	     88.77358487	      0.00000000	      0.00000000	     20.16125234	    -58.30816142	     89.63120115	     97.93972878	     88.60509215	      0.00000000	      0.00000000
      3.28500000	    -32.92963302	      5.46415402	     -6.26672391	     -0.42371513	      0.59883849	     -0.90598653	    109.91804255	    -21.52678111	     12.04142010	    103.73328766	      1.81048741	     28.05708978	      0.00000000	      0.00000000	    106.66134684	    -32.69852269	      2.69459352	    106.48015996	      1.85842938	     35.93684308	      0.00000000	      0.00000000	    -22.19931074	     -5.69444498	      4.01838135	     17.32025055	    -54.66003681	     89.61193161	     92.09433454	     88.75708670	      0.00000000	      0.00000000	     20.19165529	    -58.33701420	     89.63124326	     97.94180720	     88.63165568	      0.00000000	      0.00000000
      3.29000000	    -33.04705318	      5.36447118	     -6.48585741	     -0.42391935	      0.59854728	     -0.90527986	    109.93259013	    -21.24406015	     11.83802621	    103.69451102	      1.80981063	     28.01896721	      0.00000000	      0.00000000	    106.94768276	    -32.96336232	      2.96062029	    106.50910169	      1.85893451	     36.03024037	      0.00000000	      0.00000000	    -22.05470541	     -5.68318096	      4.27685964	     17.26962375	    -54.59087081	     89.61315621	     91.93951975	     88.74727868	      0.00000000	      0.00000000	     20.14168420	    -58.32725193	     89.63260649	     97.81230595	     88.53189033	      0.00000000	      0.00000000
      3.29500000	    -33.01674276	      5.28763637	     -6.56120952	     -0.42391514	      0.59857710	     -0.90501858	    109.82441484	    -21.15533131	     11.73218354	    103.71647110	      1.81019391	     28.08208694	      0.00000000	      0.00000000	    107.00209514	    -33.02274493	      3.12720939	    106.52087008	      1.85913990	     35.93085269	      0.00000000	      0.00000000	    -22.11772845	     -5.64006579	      4.36526325	     17.30735778	    -54.66840390	     89.61087760	     92.12554469	     88.76698213	      0.00000000	      0.00000000	     20.17752035	    -58.36958405	     89.63340721	     97.97734975	     88.57777004	      0.00000000	      0.00000000
      3.30000000	    -32.94655351	      5.24912594	     -6.54971777	     -0.42370200	      0.59864179	     -0.90506386	    109.73396667	    -21.20420115	     11.69090352	    103.71981094	      1.81025220	     28.13588618	      0.00000000	      0.00000000	    106.94323155	    -32.99556637	      3.16465769	    106.55395148	      1.85971728	     35.94487751	      0.00000000	      0.00000000	    -22.21482246	     -5.59767670	      4.35224419	     17.31801940	    -54.66803727	     89.61136167	     92.10894930	     88.77553080	      0.00000000	      0.00000000	     20.20664551	    -58.36066555	     89.63386077	     97.94923513	     88.58946414	      0.00000000	      0.00000000
      3.30500000	    -33.01308282	      5.26231773	     -6.43558468	     -0.42376149	      0.59848463	     -0.90541615	    109.83531749	    -21.31527292	     11.76713921	    103.74275602	      1.81065267	     28.10838225	      0.00000000	      0.00000000	    107.00055122	    -32.81417209	      3.14984435	    106.54786493	      1.85961105	     35.97393569	      0.00000000	      0.00000000	    -22.15456496	     -5.55265883	      4.23503829	     17.32795460	    -54.68240200	     89.61243677	     92.14842769	     88.80151638	      0.00000000	      0.00000000	     20.18027331	    -58.35001101	     89.63272570	     97.95430285	     88.55255661	      0.00000000	      0.00000000
